<?xml version="1.0" standalone="no"?>
<!DOCTYPE svg PUBLIC "-//W3C//DTD SVG 20010904//EN"
 "http://www.w3.org/TR/2001/REC-SVG-20010904/DTD/svg10.dtd">
<svg version="1.0" xmlns="http://www.w3.org/2000/svg"
 width="1024.000000pt" height="1024.000000pt" viewBox="0 0 1024.000000 1024.000000"
 preserveAspectRatio="xMidYMid meet">

<g transform="translate(0.000000,1024.000000) scale(0.100000,-0.100000)"
fill="#000000" stroke="none">
<path d="M4758 8435 c-180 -24 -412 -79 -571 -134 -265 -91 -573 -250 -796
-409 -125 -89 -364 -304 -473 -425 -298 -332 -547 -772 -656 -1162 -90 -320
-122 -526 -129 -826 -11 -471 60 -835 241 -1249 116 -265 346 -605 586 -867
128 -140 193 -199 356 -320 273 -203 513 -329 839 -439 770 -262 1534 -216
2272 136 402 192 751 470 1039 828 506 629 732 1430 628 2232 -41 323 -157
698 -309 1001 -323 645 -910 1194 -1545 1444 -223 88 -426 146 -618 177 -164
26 -218 30 -437 34 -221 3 -270 0 -427 -21z m699 -191 c417 -57 772 -181 1098
-382 221 -135 465 -337 613 -507 325 -370 545 -788 661 -1250 57 -226 87 -535
78 -790 -16 -427 -106 -768 -313 -1180 -80 -161 -223 -382 -243 -377 -7 1 -10
-2 -6 -8 10 -17 -230 -298 -243 -285 -3 3 3 12 14 19 19 14 19 15 0 29 -17 13
-18 14 -2 20 10 4 22 4 28 1 13 -8 28 14 28 43 0 12 7 28 15 37 23 22 19 26
-25 26 -44 0 -80 -27 -80 -60 0 -13 -6 -19 -17 -18 -46 4 -63 -2 -63 -22 0
-11 4 -20 9 -20 5 0 12 -7 15 -16 5 -14 4 -15 -9 -4 -12 10 -15 9 -15 -5 0
-13 -6 -16 -24 -13 -21 4 -27 -1 -42 -39 -10 -23 -22 -43 -26 -43 -4 0 -8 -9
-8 -20 0 -11 4 -20 9 -20 5 0 11 -10 13 -22 2 -14 9 -22 18 -20 8 2 -7 -17
-35 -42 -27 -25 -53 -45 -57 -46 -7 0 -6 -3 -99 265 -106 304 -213 693 -260
950 -18 93 -23 157 -23 285 0 282 35 411 208 781 146 312 194 487 212 774 11
178 -27 430 -90 598 -85 223 -244 459 -423 628 -152 142 -368 272 -583 352
-338 125 -777 141 -1121 42 -507 -146 -867 -447 -1080 -902 -113 -241 -163
-476 -158 -748 2 -124 1 -132 -23 -171 -39 -62 -90 -165 -153 -314 -31 -74
-73 -170 -92 -213 -41 -92 -39 -132 7 -179 l28 -28 175 0 175 0 1 -283 c1
-319 7 -360 68 -461 71 -116 165 -186 300 -221 32 -9 123 -18 202 -22 l143 -6
59 -44 c111 -84 167 -171 196 -306 17 -82 12 -242 -12 -355 -22 -108 -123
-391 -190 -537 -89 -191 -144 -305 -149 -305 -16 0 -205 79 -311 130 -140 68
-379 223 -515 335 -500 412 -856 1017 -967 1641 -27 153 -28 172 -28 494 0
322 1 341 28 495 73 422 200 738 442 1105 209 317 434 548 755 774 124 88 278
169 495 261 436 185 958 260 1392 199z m-92 -485 c325 -40 662 -195 889 -409
83 -78 181 -202 247 -312 172 -285 223 -683 134 -1039 -37 -148 -60 -208 -161
-421 -103 -216 -176 -415 -198 -541 -27 -153 -39 -299 -32 -413 7 -118 58
-384 100 -525 13 -46 28 -100 32 -119 l7 -34 -37 32 c-20 18 -39 32 -42 32 -6
0 59 -84 69 -88 4 -2 12 -13 18 -25 6 -12 -43 32 -109 98 -127 129 -162 161
-147 135 11 -17 61 -73 180 -197 83 -87 137 -163 117 -163 -5 0 -13 9 -18 20
-9 19 -127 142 -245 255 l-63 60 55 -65 c30 -36 105 -118 167 -183 61 -65 112
-123 112 -128 0 -14 -32 10 -63 47 -40 48 -202 191 -189 168 6 -11 28 -37 49
-56 91 -84 226 -229 203 -217 -14 7 -64 49 -111 93 -157 147 -191 177 -195
173 -2 -2 47 -55 111 -117 63 -63 112 -116 110 -118 -6 -6 -134 107 -237 207
-43 42 -78 73 -78 69 0 -8 15 -23 194 -206 76 -78 136 -142 133 -142 -3 0 -12
6 -19 13 -7 6 -47 41 -88 76 -41 35 -106 93 -145 130 -38 36 -104 98 -145 136
-70 66 -72 67 -26 15 27 -30 161 -167 298 -304 137 -137 254 -258 259 -270 6
-12 -27 19 -73 68 -45 48 -146 146 -223 216 -77 70 -156 143 -176 161 -132
122 -63 48 269 -291 205 -210 304 -322 171 -194 -41 40 -99 96 -130 125 -31
30 -112 108 -180 173 -177 171 -212 203 -208 190 2 -7 119 -130 259 -273 235
-241 273 -282 253 -265 -14 10 -306 287 -358 339 -68 67 -210 193 -195 173 3
-4 61 -64 129 -135 251 -259 284 -303 81 -107 -114 109 -227 214 -275 254
l-30 25 30 -35 c17 -19 80 -87 141 -150 61 -63 137 -144 169 -180 47 -52 40
-47 -35 26 -84 82 -250 230 -305 273 -22 18 27 -35 204 -219 67 -69 121 -129
121 -134 0 -6 -48 37 -107 95 -145 142 -228 219 -237 219 -7 0 45 -56 184
-199 116 -120 249 -262 256 -273 11 -19 -80 65 -246 227 -80 78 -174 168 -210
200 -55 50 -59 52 -25 15 22 -25 85 -92 141 -150 56 -58 135 -141 178 -185 42
-44 76 -83 76 -88 0 -4 -53 43 -117 105 -65 62 -164 158 -222 213 -57 55 -111
108 -120 118 -8 9 -20 17 -26 17 -5 0 24 -35 66 -77 223 -228 288 -297 284
-301 -2 -3 -66 55 -141 129 -75 74 -142 139 -148 144 -196 173 -201 174 -36 4
135 -139 144 -149 134 -149 -5 0 -43 32 -84 71 -41 39 -91 83 -110 97 -19 14
-45 38 -57 52 -11 14 -24 23 -26 20 -3 -3 65 -77 151 -165 87 -88 186 -191
222 -230 63 -68 16 -25 -263 237 -45 42 -86 77 -90 78 -4 0 23 -32 60 -71 37
-38 104 -107 148 -153 219 -227 265 -276 258 -276 -9 0 -155 138 -345 328 -71
69 -128 121 -128 116 0 -10 140 -160 325 -350 88 -90 122 -130 70 -83 -41 37
-251 236 -316 299 -76 74 -99 93 -99 84 0 -5 39 -50 88 -100 123 -127 161
-170 135 -153 -24 16 -294 270 -327 307 -12 13 -34 33 -51 45 l-30 21 25 -28
c29 -33 137 -146 248 -260 107 -110 76 -92 -59 35 -63 58 -139 128 -169 154
-30 26 -61 54 -67 63 -7 9 -13 12 -13 6 0 -5 37 -45 82 -89 142 -138 402 -413
343 -361 -21 18 -242 225 -324 303 -47 45 -87 80 -89 78 -2 -2 48 -57 111
-122 180 -183 306 -318 302 -322 -5 -4 -219 194 -279 257 -23 24 -79 78 -126
120 l-85 76 86 -90 c47 -49 126 -132 175 -184 49 -52 103 -108 119 -125 30
-29 69 -78 50 -62 -52 46 -210 193 -299 279 -61 60 -115 108 -120 108 -5 0 40
-50 100 -111 119 -122 151 -155 204 -215 30 -33 31 -35 6 -14 -17 14 -80 73
-140 131 -159 151 -264 249 -321 299 l-50 44 50 -52 c28 -29 114 -119 192
-199 78 -81 140 -149 138 -152 -3 -2 -66 54 -141 125 -169 161 -274 257 -274
251 0 -2 53 -58 118 -123 244 -249 322 -331 322 -338 0 -10 -199 174 -297 273
-40 41 -75 72 -78 69 -3 -3 22 -35 57 -70 65 -68 184 -192 323 -338 69 -73
123 -136 103 -120 -3 3 -78 74 -165 159 -87 84 -209 203 -271 263 -62 61 -115
109 -117 107 -2 -2 54 -63 123 -135 146 -150 256 -267 292 -310 l25 -29 -29
25 c-15 14 -58 54 -95 90 -88 86 -266 255 -321 305 l-44 40 49 -55 c27 -30
104 -111 171 -180 67 -69 137 -143 155 -165 30 -37 28 -36 -22 10 -30 28 -99
93 -153 145 -55 52 -116 111 -137 130 -20 19 -55 53 -78 75 -22 21 -41 34 -41
29 0 -6 76 -89 169 -185 257 -265 214 -234 -117 86 -126 121 -120 117 -95 80
12 -16 111 -122 222 -234 110 -113 198 -207 196 -209 -3 -3 -19 11 -37 30 -18
19 -67 65 -108 103 -41 38 -124 115 -183 173 -187 181 -129 101 79 -110 197
-200 216 -219 264 -274 l25 -28 -35 29 c-19 17 -70 64 -112 105 -174 170 -391
375 -400 379 -6 2 75 -84 180 -190 105 -107 188 -196 186 -198 -3 -4 -112 95
-287 260 -42 41 -77 71 -77 67 0 -9 115 -136 199 -219 95 -95 115 -120 66 -82
-72 57 -305 280 -298 287 2 2 -14 17 -36 32 -37 27 -40 32 -35 64 4 19 12 50
20 67 26 64 37 191 31 366 -5 193 -15 235 -79 360 -49 95 -114 168 -192 218
-104 68 -151 81 -336 88 -184 8 -200 13 -276 83 -92 85 -88 64 -94 481 l-5
369 -28 24 c-27 23 -34 24 -178 24 -82 0 -149 3 -149 7 0 3 18 45 39 92 21 47
56 124 76 171 21 47 58 130 83 185 l45 99 8 211 c4 115 10 226 14 245 4 19 13
71 22 115 17 88 64 208 131 330 182 331 476 573 837 688 252 81 445 99 710 66z
m1067 -4184 c20 -23 25 -44 6 -23 -45 49 -62 71 -43 58 11 -8 28 -24 37 -35z
m727 38 c0 -5 -4 -17 -9 -28 -8 -18 -9 -17 -9 8 -1 15 4 27 9 27 6 0 10 -3 9
-7z m-1289 -123 c18 -16 29 -30 24 -30 -6 0 -23 14 -39 30 -16 17 -26 30 -24
30 3 0 21 -13 39 -30z m316 -62 l29 -33 -32 29 c-18 17 -33 31 -33 33 0 8 8 1
36 -29z m-231 -19 c20 -22 20 -22 0 -11 -11 5 -29 20 -40 33 -20 22 -20 22 0
11 11 -5 29 -20 40 -33z m1135 38 c0 -1 -29 -32 -65 -67 -54 -54 -65 -61 -65
-42 0 15 6 22 19 22 22 0 44 23 33 35 -4 5 -2 5 4 2 6 -3 24 7 39 23 27 28 35
34 35 27z m-2375 -53 c17 -14 28 -27 25 -29 -3 -2 51 -62 120 -132 218 -224
188 -209 -48 25 -74 72 -136 132 -139 132 -17 0 46 -72 203 -231 101 -102 184
-189 184 -194 0 -10 -15 3 -154 135 -201 191 -227 214 -243 216 -9 2 35 -48
98 -110 176 -173 264 -266 254 -266 -6 0 -89 77 -185 170 -96 94 -181 170
-189 170 -8 0 -12 -2 -10 -4 172 -175 269 -275 269 -281 0 -4 -62 53 -137 126
-139 135 -149 149 -130 199 19 50 42 100 47 100 3 0 19 -12 35 -26z m1615
-180 c0 -3 -7 -1 -15 6 -8 7 -15 17 -15 22 0 5 7 3 15 -6 8 -8 15 -18 15 -22z
m-1661 -39 c29 -30 49 -55 45 -55 -8 0 -96 79 -107 97 -19 31 14 9 62 -42z
m37 -105 c88 -93 94 -102 34 -45 -123 115 -160 152 -160 160 0 16 24 -6 126
-115z m33 -95 c162 -167 169 -183 16 -36 -72 69 -145 139 -164 157 -21 20 -31
36 -26 45 6 9 15 4 33 -17 13 -16 77 -83 141 -149z m552 138 c13 -16 12 -17
-3 -4 -10 7 -18 15 -18 17 0 8 8 3 21 -13z m-535 -35 l29 -33 -32 29 c-31 28
-38 36 -30 36 2 0 16 -15 33 -32z m22 -214 c-6 -5 -239 222 -233 227 3 4 57
-45 120 -109 64 -63 114 -116 113 -118z m-212 161 c31 -29 20 -34 -13 -6 -21
18 -29 31 -19 31 3 0 17 -11 32 -25z m495 8 c13 -16 12 -17 -3 -4 -17 13 -22
21 -14 21 2 0 10 -8 17 -17z m-241 -18 c13 -14 21 -25 18 -25 -2 0 -15 11 -28
25 -13 14 -21 25 -18 25 2 0 15 -11 28 -25z m-274 -37 l29 -32 -32 25 c-18 13
-32 27 -32 32 -1 12 4 8 35 -25z m-47 -37 c-15 -5 -22 6 -14 19 6 9 10 9 16
-1 5 -8 4 -15 -2 -18z m605 -17 c5 -14 4 -15 -9 -4 -17 14 -19 20 -6 20 5 0
12 -7 15 -16z m-607 -21 c-8 -7 -37 9 -31 19 3 5 12 4 20 -3 8 -6 13 -14 11
-16z m1199 -5 l29 -33 -32 29 c-18 17 -33 31 -33 33 0 8 8 1 36 -29z m-1005
-5 c13 -16 12 -17 -3 -4 -10 7 -18 15 -18 17 0 8 8 3 21 -13z m-216 -14 c11
-16 1 -19 -13 -3 -7 8 -8 14 -3 14 5 0 13 -5 16 -11z m-24 -46 c13 -16 12 -17
-3 -4 -17 13 -22 21 -14 21 2 0 10 -8 17 -17z m59 -8 c13 -14 21 -25 18 -25
-2 0 -15 11 -28 25 -13 14 -21 25 -18 25 2 0 15 -11 28 -25z m320 -10 c19 -19
32 -35 29 -35 -3 0 -20 16 -39 35 -19 19 -32 35 -29 35 3 0 20 -16 39 -35z
m-315 -52 l18 -28 -21 19 c-12 11 -22 23 -22 28 0 14 7 9 25 -19z m450 -76 c6
-6 -3 -1 -20 10 -16 12 -41 34 -55 49 -17 19 -10 15 20 -10 25 -21 50 -43 55
-49z m-520 45 c-6 -7 -65 9 -65 17 0 5 15 3 34 -3 19 -6 33 -12 31 -14z m71
-20 c-8 -7 -25 8 -37 31 -11 21 -10 21 15 -2 14 -14 24 -26 22 -29z m449 38
c3 -5 1 -10 -4 -10 -6 0 -11 5 -11 10 0 6 2 10 4 10 3 0 8 -4 11 -10z m-394
-17 c13 -16 12 -17 -3 -4 -17 13 -22 21 -14 21 2 0 10 -8 17 -17z m379 -80 c0
-9 -57 27 -75 48 -14 16 -7 13 28 -11 26 -18 47 -35 47 -37z m65 47 c10 -11
16 -20 13 -20 -3 0 -13 9 -23 20 -10 11 -16 20 -13 20 3 0 13 -9 23 -20z m250
0 c10 -11 16 -20 13 -20 -3 0 -13 9 -23 20 -10 11 -16 20 -13 20 3 0 13 -9 23
-20z m-411 -29 c-3 -3 -15 6 -27 18 l-22 24 27 -19 c14 -10 24 -21 22 -23z
m406 -14 c13 -5 13 -6 -1 -6 -8 -1 -28 14 -45 32 l-29 32 30 -26 c17 -15 37
-29 45 -32z m-241 -4 c2 -2 -3 -3 -11 -3 -9 0 -19 7 -22 16 -6 15 -4 15 11 3
10 -7 20 -15 22 -16z"/>
<path d="M6820 3330 c0 -5 5 -10 11 -10 5 0 7 5 4 10 -3 6 -8 10 -11 10 -2 0
-4 -4 -4 -10z"/>
<path d="M6875 3280 c-3 -5 -1 -10 4 -10 6 0 11 5 11 10 0 6 -2 10 -4 10 -3 0
-8 -4 -11 -10z"/>
<path d="M4784 7486 c-130 -30 -227 -103 -277 -210 -37 -77 -50 -87 -142 -116
-92 -29 -207 -107 -264 -179 -45 -57 -100 -180 -119 -267 -32 -150 19 -333
128 -456 71 -81 208 -142 304 -136 l50 3 26 -76 c14 -41 41 -97 61 -125 41
-58 140 -128 211 -149 73 -21 200 -19 268 5 30 11 58 19 61 20 4 0 21 -22 39
-49 63 -99 170 -176 274 -198 82 -17 204 -16 255 1 58 21 144 82 236 169 73
69 84 76 132 82 131 16 296 147 343 272 28 74 36 188 20 278 -15 78 -16 137
-5 240 25 236 -173 502 -408 549 l-62 12 -47 95 c-53 108 -105 161 -208 212
-61 30 -71 32 -170 32 -92 0 -113 -4 -170 -28 -36 -15 -82 -41 -102 -57 -20
-17 -42 -30 -48 -30 -7 0 -29 14 -50 30 -95 75 -217 103 -336 76z m811 -202
c130 -63 168 -221 85 -355 -35 -58 -36 -59 -11 -59 14 0 22 -12 30 -45 6 -25
16 -45 22 -45 5 0 -2 -15 -16 -34 -16 -21 -32 -33 -41 -29 -8 3 -14 0 -14 -7
0 -9 -16 -11 -58 -7 -32 2 -66 1 -75 -5 -11 -6 -17 -5 -17 1 0 7 -8 7 -24 1
-13 -5 -66 -10 -118 -11 l-93 -2 -3 248 c-2 235 -1 249 18 281 38 61 146 108
225 98 22 -3 63 -16 90 -30z m-622 0 c18 -9 49 -32 70 -52 l37 -36 0 -259 0
-259 -67 7 c-38 4 -88 16 -113 28 -40 18 -78 34 -50 20 5 -2 10 -14 10 -26 0
-25 -49 -52 -80 -44 -12 3 -17 0 -14 -8 3 -8 -17 -25 -50 -44 -73 -42 -140
-114 -189 -203 -22 -40 -45 -76 -51 -80 -21 -14 -94 -8 -139 11 -59 26 -114
82 -146 150 -21 46 -26 71 -26 136 0 73 3 88 38 157 39 80 83 125 151 153 34
14 131 24 139 15 2 -3 20 -32 40 -66 38 -64 116 -158 124 -150 3 3 -2 15 -10
27 -9 11 -13 28 -10 35 3 8 -1 14 -11 14 -23 0 -20 31 4 37 11 3 20 13 21 22
0 12 2 12 6 2 4 -10 7 -11 13 -1 6 10 17 8 45 -9 l37 -22 -25 30 c-31 37 -67
129 -74 191 -10 88 32 177 102 217 50 28 168 32 218 7z m1054 -370 c138 -68
199 -222 148 -369 -16 -47 -78 -146 -96 -153 -4 -2 -6 -9 -3 -15 2 -7 6 -33 7
-60 2 -26 8 -51 12 -55 5 -4 5 -1 1 6 -4 7 -1 12 9 12 9 0 27 7 40 16 25 16
25 16 40 -19 11 -27 12 -47 5 -93 -6 -33 -10 -62 -10 -66 0 -18 -69 -83 -105
-99 -44 -20 -144 -25 -175 -9 -15 8 -17 16 -9 47 23 102 0 236 -63 354 -32 61
-120 157 -180 197 -21 13 -38 27 -38 31 1 11 38 51 47 51 14 0 87 78 140 150
76 102 136 122 230 74z m-984 -437 l37 -16 0 -215 c0 -237 2 -230 -69 -265
-85 -43 -179 -31 -263 34 -89 67 -121 185 -81 300 23 64 102 146 163 168 55
20 159 17 213 -6z m444 8 c99 -29 180 -111 209 -212 22 -75 20 -176 -4 -247
-20 -58 -20 -60 -1 -103 24 -57 24 -78 -2 -114 -71 -100 -250 -97 -352 7 -73
74 -72 68 -72 374 l0 274 45 18 c56 21 112 22 177 3z"/>
<path d="M4678 6718 c6 -7 25 -21 44 -31 l33 -19 -33 31 c-32 31 -66 45 -44
19z"/>
<path d="M6070 4007 c0 -2 15 -16 33 -33 l32 -29 -29 33 c-28 30 -36 37 -36
29z"/>
<path d="M5320 3726 c0 -2 7 -7 16 -10 8 -3 12 -2 9 4 -6 10 -25 14 -25 6z"/>
<path d="M5280 3706 c0 -2 8 -10 18 -17 15 -13 16 -12 3 4 -13 16 -21 21 -21
13z"/>
<path d="M5440 3680 c6 -11 16 -20 22 -20 6 0 3 9 -7 20 -10 11 -20 20 -22 20
-2 0 1 -9 7 -20z"/>
<path d="M5519 3666 c14 -15 26 -26 28 -26 9 0 -24 40 -37 45 -8 4 -4 -5 9
-19z"/>
<path d="M5265 3660 c10 -11 20 -20 23 -20 3 0 -3 9 -13 20 -10 11 -20 20 -23
20 -3 0 3 -9 13 -20z"/>
<path d="M5505 3610 c3 -5 10 -10 16 -10 5 0 9 5 9 10 0 6 -7 10 -16 10 -8 0
-12 -4 -9 -10z"/>
<path d="M5020 3597 c0 -2 15 -16 33 -33 l32 -29 -29 33 c-28 30 -36 37 -36
29z"/>
<path d="M4830 3530 c0 -5 5 -10 11 -10 5 0 7 5 4 10 -3 6 -8 10 -11 10 -2 0
-4 -4 -4 -10z"/>
<path d="M4770 3526 c0 -2 8 -10 18 -17 15 -13 16 -12 3 4 -13 16 -21 21 -21
13z"/>
<path d="M4750 3426 c0 -2 8 -10 18 -17 15 -13 16 -12 3 4 -13 16 -21 21 -21
13z"/>
</g>
</svg>
